<mxfile host="app.diagrams.net" modified="2021-03-11T06:46:42.765Z" agent="5.0 (Windows)" etag="DcQ_kC78DUnX9jpjzj4n" version="14.4.3" type="github">
  <diagram id="iUw1AErKdbEC1x-FSOwM" name="Page-1">
    <mxGraphModel dx="1504" dy="3944" grid="1" gridSize="10" guides="1" tooltips="1" connect="1" arrows="1" fold="1" page="1" pageScale="1" pageWidth="2339" pageHeight="3300" math="0" shadow="0">
      <root>
        <mxCell id="0" />
        <mxCell id="1" parent="0" />
        <mxCell id="1Yoz8yg4im6rIYNBCdMk-37" value="" style="rounded=1;html=3;dashed=0;border-width=5px;" parent="1" vertex="1">
          <mxGeometry x="175" y="44" width="810" height="150" as="geometry" />
        </mxCell>
        <mxCell id="1Yoz8yg4im6rIYNBCdMk-32" value="" style="edgeStyle=orthogonalEdgeStyle;rounded=0;orthogonalLoop=1;jettySize=auto;html=1;" parent="1" source="ucLkP26N742wNhBIR651-19" target="1Yoz8yg4im6rIYNBCdMk-31" edge="1">
          <mxGeometry relative="1" as="geometry" />
        </mxCell>
        <mxCell id="ucLkP26N742wNhBIR651-19" value="&lt;div&gt;创建项目&lt;/div&gt;&lt;div&gt;配置流水线&lt;/div&gt;" style="rounded=0;whiteSpace=wrap;html=1;" parent="1" vertex="1">
          <mxGeometry x="290" y="100" width="120" height="69" as="geometry" />
        </mxCell>
        <mxCell id="ucLkP26N742wNhBIR651-20" value="" style="edgeStyle=orthogonalEdgeStyle;rounded=0;orthogonalLoop=1;jettySize=auto;html=1;exitX=1;exitY=0.5;exitDx=0;exitDy=0;" parent="1" source="ucLkP26N742wNhBIR651-68" target="ucLkP26N742wNhBIR651-27" edge="1">
          <mxGeometry relative="1" as="geometry">
            <mxPoint x="968" y="134.5" as="sourcePoint" />
          </mxGeometry>
        </mxCell>
        <mxCell id="ucLkP26N742wNhBIR651-23" value="&lt;div&gt;IAST&lt;/div&gt;&lt;div&gt;漏洞分析&lt;br&gt;&lt;/div&gt;" style="shape=hexagon;perimeter=hexagonPerimeter2;whiteSpace=wrap;html=1;fixedSize=1;fillColor=#FF2908;" parent="1" vertex="1">
          <mxGeometry x="541" y="318" width="100" height="80" as="geometry" />
        </mxCell>
        <mxCell id="ucLkP26N742wNhBIR651-27" value="生产环境" style="rounded=0;whiteSpace=wrap;html=1;" parent="1" vertex="1">
          <mxGeometry x="1038" y="99.5" width="120" height="70" as="geometry" />
        </mxCell>
        <mxCell id="ucLkP26N742wNhBIR651-33" value="" style="shape=mxgraph.signs.people.man_1;html=1;pointerEvents=1;fillColor=#000000;strokeColor=none;verticalLabelPosition=bottom;verticalAlign=top;align=center;" parent="1" vertex="1">
          <mxGeometry x="21" y="98" width="37" height="73" as="geometry" />
        </mxCell>
        <mxCell id="ucLkP26N742wNhBIR651-34" value="推送数据流" style="text;html=1;align=center;verticalAlign=middle;resizable=0;points=[];autosize=1;" parent="1" vertex="1">
          <mxGeometry x="546" y="256" width="80" height="20" as="geometry" />
        </mxCell>
        <mxCell id="ucLkP26N742wNhBIR651-39" value="Developer" style="text;html=1;align=center;verticalAlign=middle;resizable=0;points=[];autosize=1;" parent="1" vertex="1">
          <mxGeometry x="42" y="141" width="70" height="20" as="geometry" />
        </mxCell>
        <mxCell id="ucLkP26N742wNhBIR651-66" value="SOC" style="whiteSpace=wrap;html=1;aspect=fixed;" parent="1" vertex="1">
          <mxGeometry x="546" y="456" width="90" height="90" as="geometry" />
        </mxCell>
        <mxCell id="ucLkP26N742wNhBIR651-67" value="" style="edgeStyle=orthogonalEdgeStyle;rounded=0;orthogonalLoop=1;jettySize=auto;html=1;dashed=1;" parent="1" source="ucLkP26N742wNhBIR651-23" target="ucLkP26N742wNhBIR651-66" edge="1">
          <mxGeometry relative="1" as="geometry">
            <mxPoint x="591" y="398" as="sourcePoint" />
            <mxPoint x="591" y="547" as="targetPoint" />
          </mxGeometry>
        </mxCell>
        <mxCell id="ucLkP26N742wNhBIR651-68" value="是否通过" style="rhombus;whiteSpace=wrap;html=1;fillColor=#FFFFFF;" parent="1" vertex="1">
          <mxGeometry x="841" y="94.5" width="80" height="80" as="geometry" />
        </mxCell>
        <mxCell id="1Yoz8yg4im6rIYNBCdMk-17" value="" style="endArrow=classic;html=1;exitX=0.5;exitY=0;exitDx=0;exitDy=0;dashed=1;" parent="1" source="ucLkP26N742wNhBIR651-68" edge="1">
          <mxGeometry width="50" height="50" relative="1" as="geometry">
            <mxPoint x="590" y="240" as="sourcePoint" />
            <mxPoint x="40" y="100" as="targetPoint" />
            <Array as="points">
              <mxPoint x="886" y="-120" />
              <mxPoint x="40" y="-120" />
            </Array>
          </mxGeometry>
        </mxCell>
        <mxCell id="1Yoz8yg4im6rIYNBCdMk-19" value="&lt;font style=&quot;font-size: 14px&quot;&gt;否&lt;/font&gt;" style="edgeLabel;html=1;align=center;verticalAlign=middle;resizable=0;points=[];" parent="1Yoz8yg4im6rIYNBCdMk-17" vertex="1" connectable="0">
          <mxGeometry x="-0.8526" y="-1" relative="1" as="geometry">
            <mxPoint y="1" as="offset" />
          </mxGeometry>
        </mxCell>
        <mxCell id="1Yoz8yg4im6rIYNBCdMk-20" value="&lt;font style=&quot;font-size: 14px&quot;&gt;是&lt;/font&gt;" style="text;html=1;align=center;verticalAlign=middle;resizable=0;points=[];autosize=1;" parent="1" vertex="1">
          <mxGeometry x="947" y="120" width="30" height="20" as="geometry" />
        </mxCell>
        <mxCell id="1Yoz8yg4im6rIYNBCdMk-36" value="" style="edgeStyle=orthogonalEdgeStyle;rounded=0;orthogonalLoop=1;jettySize=auto;html=1;dashed=1;" parent="1" source="zbItJYoCvAXcIdx8qF1g-4" target="ucLkP26N742wNhBIR651-68" edge="1">
          <mxGeometry relative="1" as="geometry" />
        </mxCell>
        <mxCell id="1Yoz8yg4im6rIYNBCdMk-57" value="" style="edgeStyle=orthogonalEdgeStyle;rounded=0;orthogonalLoop=1;jettySize=auto;html=1;dashed=1;exitX=0.5;exitY=1;exitDx=0;exitDy=0;" parent="1" source="1Yoz8yg4im6rIYNBCdMk-31" edge="1">
          <mxGeometry relative="1" as="geometry">
            <mxPoint x="569" y="134" as="sourcePoint" />
            <mxPoint x="591" y="320" as="targetPoint" />
          </mxGeometry>
        </mxCell>
        <mxCell id="zbItJYoCvAXcIdx8qF1g-6" value="" style="edgeStyle=orthogonalEdgeStyle;rounded=0;orthogonalLoop=1;jettySize=auto;html=1;" edge="1" parent="1" source="1Yoz8yg4im6rIYNBCdMk-31" target="zbItJYoCvAXcIdx8qF1g-4">
          <mxGeometry relative="1" as="geometry" />
        </mxCell>
        <mxCell id="1Yoz8yg4im6rIYNBCdMk-31" value="&lt;div&gt;Test Server&lt;/div&gt;" style="rounded=0;whiteSpace=wrap;html=1;dashed=1;" parent="1" vertex="1">
          <mxGeometry x="530" y="99" width="120" height="70" as="geometry" />
        </mxCell>
        <mxCell id="1Yoz8yg4im6rIYNBCdMk-33" value="build and run" style="text;html=1;align=center;verticalAlign=middle;resizable=0;points=[];autosize=1;" parent="1" vertex="1">
          <mxGeometry x="430" y="118" width="80" height="20" as="geometry" />
        </mxCell>
        <mxCell id="1Yoz8yg4im6rIYNBCdMk-34" value="Container" style="text;html=1;align=center;verticalAlign=middle;resizable=0;points=[];autosize=1;" parent="1" vertex="1">
          <mxGeometry x="580" y="100" width="70" height="20" as="geometry" />
        </mxCell>
        <mxCell id="1Yoz8yg4im6rIYNBCdMk-44" value="Gitlab" style="rounded=0;whiteSpace=wrap;html=1;" parent="1" vertex="1">
          <mxGeometry x="200" y="-90" width="120" height="60" as="geometry" />
        </mxCell>
        <mxCell id="1Yoz8yg4im6rIYNBCdMk-45" value="Harbor" style="rounded=0;whiteSpace=wrap;html=1;" parent="1" vertex="1">
          <mxGeometry x="196" y="273" width="120" height="60" as="geometry" />
        </mxCell>
        <mxCell id="1Yoz8yg4im6rIYNBCdMk-47" value="pull" style="text;html=1;align=center;verticalAlign=middle;resizable=0;points=[];autosize=1;" parent="1" vertex="1">
          <mxGeometry x="250" y="7" width="30" height="20" as="geometry" />
        </mxCell>
        <mxCell id="1Yoz8yg4im6rIYNBCdMk-48" value="" style="endArrow=classic;html=1;dashed=1;" parent="1" edge="1">
          <mxGeometry width="50" height="50" relative="1" as="geometry">
            <mxPoint x="260" y="193" as="sourcePoint" />
            <mxPoint x="260" y="272" as="targetPoint" />
          </mxGeometry>
        </mxCell>
        <mxCell id="1Yoz8yg4im6rIYNBCdMk-49" value="pull" style="text;html=1;align=center;verticalAlign=middle;resizable=0;points=[];autosize=1;" parent="1" vertex="1">
          <mxGeometry x="255" y="237" width="30" height="20" as="geometry" />
        </mxCell>
        <mxCell id="1Yoz8yg4im6rIYNBCdMk-50" value="" style="endArrow=classic;html=1;entryX=0;entryY=1;entryDx=0;entryDy=0;exitX=0.9;exitY=0.2;exitDx=0;exitDy=0;exitPerimeter=0;dashed=1;" parent="1" source="ucLkP26N742wNhBIR651-33" target="1Yoz8yg4im6rIYNBCdMk-44" edge="1">
          <mxGeometry width="50" height="50" relative="1" as="geometry">
            <mxPoint x="700" y="260" as="sourcePoint" />
            <mxPoint x="750" y="210" as="targetPoint" />
          </mxGeometry>
        </mxCell>
        <mxCell id="1Yoz8yg4im6rIYNBCdMk-51" value="" style="endArrow=classic;html=1;exitX=0.65;exitY=1;exitDx=0;exitDy=0;exitPerimeter=0;entryX=0;entryY=0;entryDx=0;entryDy=0;dashed=1" parent="1" source="ucLkP26N742wNhBIR651-33" target="1Yoz8yg4im6rIYNBCdMk-45" edge="1">
          <mxGeometry width="50" height="50" relative="1" as="geometry">
            <mxPoint x="700" y="260" as="sourcePoint" />
            <mxPoint x="750" y="210" as="targetPoint" />
          </mxGeometry>
        </mxCell>
        <mxCell id="1Yoz8yg4im6rIYNBCdMk-54" value="" style="endArrow=classic;html=1;entryX=0.411;entryY=0.983;entryDx=0;entryDy=0;entryPerimeter=0;exitX=0.092;exitY=-0.007;exitDx=0;exitDy=0;exitPerimeter=0;dashed=1" parent="1" source="1Yoz8yg4im6rIYNBCdMk-37" target="1Yoz8yg4im6rIYNBCdMk-44" edge="1">
          <mxGeometry width="50" height="50" relative="1" as="geometry">
            <mxPoint x="249" y="50" as="sourcePoint" />
            <mxPoint x="750" y="210" as="targetPoint" />
          </mxGeometry>
        </mxCell>
        <mxCell id="1Yoz8yg4im6rIYNBCdMk-58" value="push" style="text;html=1;align=center;verticalAlign=middle;resizable=0;points=[];autosize=1;" parent="1" vertex="1">
          <mxGeometry x="90" y="30" width="40" height="20" as="geometry" />
        </mxCell>
        <mxCell id="1Yoz8yg4im6rIYNBCdMk-59" value="push" style="text;html=1;align=center;verticalAlign=middle;resizable=0;points=[];autosize=1;" parent="1" vertex="1">
          <mxGeometry x="90" y="200" width="40" height="20" as="geometry" />
        </mxCell>
        <mxCell id="1Yoz8yg4im6rIYNBCdMk-60" value="&lt;b&gt;&lt;font style=&quot;font-size: 18px&quot;&gt;TESS-CIS&lt;/font&gt;&lt;/b&gt;" style="text;html=1;strokeColor=none;fillColor=none;align=center;verticalAlign=middle;whiteSpace=wrap;rounded=0;" parent="1" vertex="1">
          <mxGeometry x="522" y="48" width="110" height="20" as="geometry" />
        </mxCell>
        <mxCell id="1Yoz8yg4im6rIYNBCdMk-65" value="同步漏洞" style="text;html=1;align=center;verticalAlign=middle;resizable=0;points=[];autosize=1;" parent="1" vertex="1">
          <mxGeometry x="579" y="420" width="60" height="20" as="geometry" />
        </mxCell>
        <mxCell id="1Yoz8yg4im6rIYNBCdMk-68" value="" style="shape=mxgraph.signs.people.man_1;html=1;pointerEvents=1;fillColor=#000000;strokeColor=none;verticalLabelPosition=bottom;verticalAlign=top;align=center;" parent="1" vertex="1">
          <mxGeometry x="200" y="93" width="37" height="73" as="geometry" />
        </mxCell>
        <mxCell id="1Yoz8yg4im6rIYNBCdMk-73" value="" style="edgeStyle=orthogonalEdgeStyle;rounded=0;orthogonalLoop=1;jettySize=auto;html=1;" parent="1" source="1Yoz8yg4im6rIYNBCdMk-69" target="1Yoz8yg4im6rIYNBCdMk-68" edge="1">
          <mxGeometry relative="1" as="geometry" />
        </mxCell>
        <mxCell id="1Yoz8yg4im6rIYNBCdMk-69" value="Tester" style="text;html=1;strokeColor=none;fillColor=none;align=center;verticalAlign=middle;whiteSpace=wrap;rounded=0;" parent="1" vertex="1">
          <mxGeometry x="197" y="163.5" width="40" height="20" as="geometry" />
        </mxCell>
        <mxCell id="1Yoz8yg4im6rIYNBCdMk-71" value="" style="endArrow=classic;html=1;exitX=0.378;exitY=0.603;exitDx=0;exitDy=0;exitPerimeter=0;entryX=0;entryY=0.5;entryDx=0;entryDy=0;" parent="1" source="1Yoz8yg4im6rIYNBCdMk-68" target="ucLkP26N742wNhBIR651-19" edge="1">
          <mxGeometry width="50" height="50" relative="1" as="geometry">
            <mxPoint x="229.71099999999979" y="133.57399999999961" as="sourcePoint" />
            <mxPoint x="290" y="130" as="targetPoint" />
          </mxGeometry>
        </mxCell>
        <mxCell id="zbItJYoCvAXcIdx8qF1g-1" value="iast_agent" style="text;html=1;strokeColor=none;fillColor=none;align=center;verticalAlign=middle;whiteSpace=wrap;rounded=0;" vertex="1" parent="1">
          <mxGeometry x="601" y="149" width="40" height="20" as="geometry" />
        </mxCell>
        <mxCell id="zbItJYoCvAXcIdx8qF1g-2" value="" style="endArrow=classic;html=1;exitX=0.5;exitY=1;exitDx=0;exitDy=0;entryX=0.19;entryY=0.025;entryDx=0;entryDy=0;entryPerimeter=0;dashed=1;" edge="1" parent="1" source="ucLkP26N742wNhBIR651-19" target="ucLkP26N742wNhBIR651-23">
          <mxGeometry width="50" height="50" relative="1" as="geometry">
            <mxPoint x="620" y="270" as="sourcePoint" />
            <mxPoint x="670" y="220" as="targetPoint" />
          </mxGeometry>
        </mxCell>
        <mxCell id="zbItJYoCvAXcIdx8qF1g-3" value="调用IAST-API，创建项目" style="text;html=1;align=center;verticalAlign=middle;resizable=0;points=[];autosize=1;rotation=35;" vertex="1" parent="1">
          <mxGeometry x="360" y="240" width="150" height="20" as="geometry" />
        </mxCell>
        <mxCell id="zbItJYoCvAXcIdx8qF1g-4" value="测试质量卡点" style="rounded=0;whiteSpace=wrap;html=1;" vertex="1" parent="1">
          <mxGeometry x="680" y="98" width="120" height="72" as="geometry" />
        </mxCell>
        <mxCell id="zbItJYoCvAXcIdx8qF1g-7" value="" style="endArrow=classic;html=1;exitX=0.5;exitY=1;exitDx=0;exitDy=0;entryX=0.82;entryY=0.013;entryDx=0;entryDy=0;entryPerimeter=0;dashed=1" edge="1" parent="1" source="zbItJYoCvAXcIdx8qF1g-4" target="ucLkP26N742wNhBIR651-23">
          <mxGeometry width="50" height="50" relative="1" as="geometry">
            <mxPoint x="620" y="190" as="sourcePoint" />
            <mxPoint x="670" y="140" as="targetPoint" />
          </mxGeometry>
        </mxCell>
        <mxCell id="zbItJYoCvAXcIdx8qF1g-8" value="调用IAST-API，生检测报告" style="text;html=1;strokeColor=none;fillColor=none;align=center;verticalAlign=middle;whiteSpace=wrap;rounded=0;rotation=-45;" vertex="1" parent="1">
          <mxGeometry x="614.77" y="236.73" width="103" height="20" as="geometry" />
        </mxCell>
        <mxCell id="zbItJYoCvAXcIdx8qF1g-9" value="" style="endArrow=classic;html=1;entryX=0.75;entryY=1;entryDx=0;entryDy=0;dashed=1;" edge="1" parent="1" target="zbItJYoCvAXcIdx8qF1g-4">
          <mxGeometry width="50" height="50" relative="1" as="geometry">
            <mxPoint x="630" y="326" as="sourcePoint" />
            <mxPoint x="760.8200000000002" y="178.05000000000018" as="targetPoint" />
          </mxGeometry>
        </mxCell>
        <mxCell id="zbItJYoCvAXcIdx8qF1g-10" value="&lt;div&gt;返回检测报告超链接&lt;/div&gt;&lt;div&gt;返回漏洞关键信息json&lt;br&gt;&lt;/div&gt;" style="text;html=1;align=center;verticalAlign=middle;resizable=0;points=[];autosize=1;rotation=-50;" vertex="1" parent="1">
          <mxGeometry x="646" y="245" width="130" height="30" as="geometry" />
        </mxCell>
        <mxCell id="zbItJYoCvAXcIdx8qF1g-15" value="" style="endArrow=classic;html=1;entryX=0.5;entryY=1;entryDx=0;entryDy=0;entryPerimeter=0;exitX=0;exitY=0.5;exitDx=0;exitDy=0;dashed=1;" edge="1" parent="1" source="ucLkP26N742wNhBIR651-66" target="ucLkP26N742wNhBIR651-33">
          <mxGeometry relative="1" as="geometry">
            <mxPoint x="540" y="500" as="sourcePoint" />
            <mxPoint x="50" y="190" as="targetPoint" />
            <Array as="points">
              <mxPoint x="220" y="420" />
            </Array>
          </mxGeometry>
        </mxCell>
        <mxCell id="zbItJYoCvAXcIdx8qF1g-16" value="" style="shape=message;html=1;outlineConnect=0;" vertex="1" parent="zbItJYoCvAXcIdx8qF1g-15">
          <mxGeometry width="20" height="14" relative="1" as="geometry">
            <mxPoint x="-10" y="-7" as="offset" />
          </mxGeometry>
        </mxCell>
      </root>
    </mxGraphModel>
  </diagram>
</mxfile>
